<svg xmlns="http://www.w3.org/2000/svg" viewBox="0 0 720 460" role="img" aria-labelledby="title desc">
  <title id="title">System board for AI and interaction work</title>
  <desc id="desc">A hard-edged neo-brutalist system diagram with blocks, arrows, nodes, and labels.</desc>
  <defs>
    <pattern id="grid" width="32" height="32" patternUnits="userSpaceOnUse">
      <path d="M32 0H0V32" fill="none" stroke="#111" stroke-width="2"/>
    </pattern>
    <pattern id="dots" width="18" height="18" patternUnits="userSpaceOnUse">
      <rect x="4" y="4" width="5" height="5" fill="#111"/>
    </pattern>
  </defs>

  <rect x="31" y="38" width="646" height="362" fill="#fff" stroke="#111" stroke-width="8"/>
  <rect x="48" y="55" width="610" height="328" fill="url(#grid)"/>
  <rect x="48" y="55" width="610" height="328" fill="#fff"/>

  <rect x="72" y="76" width="162" height="48" fill="#165dff" stroke="#111" stroke-width="6"/>
  <text x="93" y="108" font-family="Impact, Arial Black, sans-serif" font-size="28" fill="#fff">INPUTS</text>

  <rect x="72" y="160" width="162" height="136" fill="#ccff00" stroke="#111" stroke-width="6"/>
  <text x="95" y="207" font-family="Impact, Arial Black, sans-serif" font-size="30" fill="#111">DATA</text>
  <text x="95" y="246" font-family="Impact, Arial Black, sans-serif" font-size="30" fill="#111">TOOLS</text>
  <path d="M95 264h98" stroke="#111" stroke-width="6"/>

  <rect x="298" y="96" width="166" height="180" fill="#111" stroke="#111" stroke-width="6"/>
  <rect x="324" y="122" width="114" height="88" fill="#fff"/>
  <circle cx="381" cy="254" r="22" fill="#ff006e" stroke="#111" stroke-width="6"/>
  <text x="321" y="185" font-family="Impact, Arial Black, sans-serif" font-size="42" fill="#111">AI</text>

  <rect x="518" y="78" width="104" height="78" fill="#ff006e" stroke="#111" stroke-width="6"/>
  <text x="543" y="126" font-family="Impact, Arial Black, sans-serif" font-size="28" fill="#fff">UX</text>

  <rect x="508" y="208" width="136" height="102" fill="#165dff" stroke="#111" stroke-width="6"/>
  <path d="M532 240h88M532 264h64M532 288h76" stroke="#fff" stroke-width="8"/>

  <path d="M234 220h64M464 178h54M464 254h44" fill="none" stroke="#111" stroke-width="8"/>
  <path d="m282 197 20 23-20 23M498 155l24 23-24 23M492 231l22 23-22 23" fill="none" stroke="#111" stroke-width="8" stroke-linecap="square" stroke-linejoin="miter"/>

  <rect x="92" y="332" width="126" height="34" fill="#111"/>
  <text x="108" y="356" font-family="Impact, Arial Black, sans-serif" font-size="20" fill="#fff">PROTOTYPE</text>

  <rect x="300" y="330" width="164" height="34" fill="#ff9500" stroke="#111" stroke-width="5"/>
  <text x="322" y="354" font-family="Impact, Arial Black, sans-serif" font-size="20" fill="#111">ITERATE FAST</text>

  <rect x="502" y="338" width="142" height="34" fill="#ccff00" stroke="#111" stroke-width="5"/>
  <text x="522" y="362" font-family="Impact, Arial Black, sans-serif" font-size="20" fill="#111">SHIP USEFUL</text>

  <path d="M48 55h610v328H48Z" fill="none" stroke="#111" stroke-width="4"/>
  <path d="M655 42 690 74M665 80l24-4 2-24" fill="none" stroke="#111" stroke-width="8" stroke-linecap="square"/>
  <rect x="20" y="28" width="646" height="362" fill="none" stroke="#111" stroke-width="8"/>
</svg>
